<?xml version="1.0" encoding="utf-8"?>
<!-- Generator: Adobe Illustrator 24.1.1, SVG Export Plug-In . SVG Version: 6.00 Build 0)  -->
<svg version="1.1" id="Warstwa_1" xmlns="http://www.w3.org/2000/svg" xmlns:xlink="http://www.w3.org/1999/xlink" x="0px" y="0px"
	 width="938.9px" height="908.8px" viewBox="0 0 938.9 908.8" style="enable-background:new 0 0 938.9 908.8;" xml:space="preserve"
	>
<style type="text/css">
	.st0{clip-path:url(#SVGID_2_);fill-rule:evenodd;clip-rule:evenodd;fill:#2A4161;}
	.st1{fill-rule:evenodd;clip-rule:evenodd;fill:#E32B81;}
	.st2{fill-rule:evenodd;clip-rule:evenodd;fill:#2E4364;}
</style>
<g>
	<g>
		<defs>
			<rect id="SVGID_1_" width="938.9" height="908.8"/>
		</defs>
		<clipPath id="SVGID_2_">
			<use xlink:href="#SVGID_1_"  style="overflow:visible;"/>
		</clipPath>
		<path class="st0" d="M440.9,290.4c0-5.3,6-10.7,11.9-10.7c8.1,0,10.6,10.2,10.6,18.7c0,1.9-1.8,2.7-4,2.7h-7.9
			C445.2,301.1,440.9,295.7,440.9,290.4L440.9,290.4z M409.2,287.7c0-4.3,5.7-8,10.6-8h1.3c3.9,0,9.2,6.7,9.2,10.7
			c0,6.8-7.1,10.7-14.5,10.7h-6.6V287.7z M410.5,244.9c7.9,0,14.5,2.6,14.5,10.7v2.7c0,4.3-5.7,8-10.6,8h-1.3
			c-3.7,0-9.2-5.6-9.2-9.4v-8c0-3.1,0.9-4,4-4H410.5z M10.6,483.1c16.4,0,49,1.4,63.6,3.7c19.4,3.1,44.4,1.1,63.4,4
			c41.7,6.4,82.4,6.8,121.5,14.7c38.9,7.9,72.5,16.7,106.8,28.3c16.9,5.7,33.3,11.9,48.7,18.9c5.5,2.5,44,24.1,44.9,24.1
			c0.2,0,40.4-20.5,44.9-22.7c13.6-7,34-14.9,49-19.9c35.5-11.9,68.3-20.4,108-28.4c37.6-7.6,77.8-13,120.2-16
			c10.6-0.7,127.2-8.8,128-9.4l-25.1-97.7c-40.1,0-88.6,5-126.6,9.5c-19.1,2.2-39.7,5.4-58.7,8.8c-18.9,3.4-40.4,8.5-60.2,8.5
			c-13.8,0-29-9.8-29-22.8v-13.4c0-14.3,14.4-54.6,18-72.8c4.9-25.2,9.4-52.5,15-77.1c7.6,2.1,17.2,10.7,29,10.7h15.8
			c8.5,0,19-5.5,22.4-10.5l-60.6-24.3c50.7,0,87.4-14.1,112.5-39.8c13.8-14.1,23.8-23.8,35.1-40.8c4.8-7.4,26.7-42.4,26.7-50.6v-4
			c-9.5,0.2-8.7,6.3-11.9,13.4c-2.8,6.3-6.2,11.3-9.2,17.4c-3.2,6.5-16.2,27.4-20.2,30.6l-4.9-32c-12.9,0.3-2.6,8.1-2.6,18.7v10.7
			c0,25.5-49,56.3-71.3,61.6c7.1-10.8,18.5-20.9,18.5-40.2c0-1.2-1.5-2.7-2.6-2.7c-5.6,0-4.8,11-7.1,16.9c-3.2,8-5,9.7-9.5,15.8
			c-5.7,7.7-19.8,16.9-32.2,16.9h-21.1c-9.5,0-28.1-3.7-33-8c19.1,0,48.2-13.4,61.1-21c16.9-9.9,31.5-24.1,42.9-39.5
			c18.9-25.5,42.5-79.1,42.5-122.9c-11.3-2.4-9.2,20-12.4,32.9c-2.7,10.6-5.9,30.3-11.4,36.7c0-14.4-10-31.7-18.8-37.8l-3.7,4.3
			c5.5,8.3,15.8,18.4,15.8,32.1v13.4c0,18-37.2,63.4-50.2,66.9c1.1-4.8,6.6-16.8,6.6-21.4v-4c0-4.6-0.5-18.7-4-18.7
			c-7.1,0-2.6,10.5-2.6,17.4c0,36.3-37.1,53.5-73.9,53.5h-6.6c-13.1,0-25.1-5.9-33.8-11.2c-5-3.1-24.3-23.6-24.3-12.9
			c0,13.1,44.2,29.4,46,31.6l-115.5,39.7l4.8,10.3c-4.8,6.6-40.1,23.1-43.6,36.5l-9.2-1.7c1.2-5.4,4-6.7,4-12
			c0-7.2-7.4-14.7-14.5-14.7h-10.6c-3.1,0-5.3,2.2-5.3,5.4v10.7c0,8.4,7.3,13.4,15.8,13.4h1.3c3.4,0,3.2-0.3,5.7-1.7l6.2,8.4
			c-4.1-0.3-4.7-1.3-9.2-1.3c-7.9,0-15.8,5.8-15.8,12v6.7c0,4.8,0.6,10.7,5.3,10.7h7.9c9.5,0,17.2-5.4,17.2-14.7V289
			c0-7.2-4-4.8-1-11l5,5.7c-0.7,3-1.3,3.1-1.3,6.7c0,7.7,5.7,14.7,13.2,14.7h9.2c3.6,0,3.6-0.6,6.6-1.3c0.7-3,1.3-3.1,1.3-6.7v-5.4
			c0-7.2-7.1-16.1-14.5-16.1h-2.6c-4.8,0-6.4,2.1-9.2,4c-1.6-2.4-2.6-2.4-2.6-5.4c0-9.6,35.9-31.3,44.8-35.8l68.7,15.7
			c-5.5,10.6-23.9,26.9-32.2,38.3c-9.5,13-22.1,25.2-32.2,38.3c-15.3,19.7-47.8,60.8-47.8,93.5V447c0,12.1,8.4,26.6,10.6,36.1
			c-1.8-0.5-32.7-20.9-39.1-24.6c-14.2-8-28.9-13.9-44.8-20.2c-32.8-13-62.6-20.1-99.2-29.2c-54.2-13.5-164-26.5-229.7-26.4
			L10.6,483.1z M10.6,483.1"/>
	</g>
	<path class="st1" d="M10.6,483.1L0,519.3c45.1,0,91.2,5,134.6,8c34.9,2.4,92.3,10.4,124.9,17.9c42.1,9.7,73.6,19.4,111.2,31.8
		c16.1,5.3,33.7,15.1,48.6,23c16.1,8.5,29.6,24.1,41.3,30.4c14.4-9.8,22.1-20.1,40.5-29.9c17.2-9.2,29.2-15.3,48.4-23.2
		c37.2-15.4,70.3-20.4,111.3-31.7c16.3-4.5,43.5-8.1,61.2-10.2c20.3-2.4,42.6-5.5,63.5-7.9c20.7-2.3,47-1.1,66.7-4.7
		c13.9-2.5,52.5-3.5,68.5-3.6l-11.2-38.7c-0.9,0.6-117.4,8.6-128,9.4c-42.4,3-82.6,8.4-120.2,16c-39.6,8-72.4,16.5-108,28.4
		c-15,5-35.4,13-49,19.9c-4.4,2.3-44.7,22.7-44.9,22.7c-0.8,0-39.3-21.6-44.9-24.1c-15.4-7-31.8-13.2-48.7-18.9
		c-34.2-11.6-67.9-20.4-106.8-28.3c-39-7.9-79.8-8.3-121.5-14.7c-19-2.9-44-0.9-63.4-4C59.6,484.5,27,483.1,10.6,483.1L10.6,483.1z
		 M10.6,483.1"/>
	<path class="st2" d="M39.4,791.6l4.2-6.1l72.8-77.8h39.8l-79.9,84.4l82.8,108.9h-39.3l-66.1-89.2L40.2,825v75.9H8.9V707.7h31.3
		v74.1L39.4,791.6z M365.4,855.5H295l-18.6,45.4h-30.5l85.5-201.3h1.9l85.5,201.3h-35.6L365.4,855.5z M355,829l-24.2-61.1l-25,61.1
		H355z M696.7,707.7v200.2h-0.8L556.5,772.7l0.8,128.2H526V701h1.6l138.9,136.7l-0.5-130.1H696.7z M925.8,746.9
		c-16.6-8.7-31.4-13-44.3-13c-9.6,0-17.1,2.1-22.7,6.4c-5.6,4.3-8.4,10.1-8.4,17.5c0,7.3,3.5,13.3,10.5,18.2
		c7,4.9,16.8,9.7,29.3,14.5c9.6,3.4,17.7,7.2,24.6,11.6c6.8,4.3,12.4,10.2,16.9,17.7c4.4,7.4,6.6,16.8,6.6,28.1
		c0,10.3-2.6,19.6-7.7,27.9c-5.1,8.3-12.6,15-22.3,19.9c-9.7,5-21.2,7.4-34.5,7.4c-11.7,0-23.2-1.8-34.5-5.4
		c-11.3-3.6-21.4-8.6-30.3-15l13.8-24.2c6.5,5,14.3,9.1,23.2,12.3c8.9,3.3,17.2,4.9,24.8,4.9c9.4,0,17.6-2.3,24.7-6.8
		c7.1-4.5,10.6-11.5,10.6-20.8c0-7.4-3-13.6-8.9-18.6c-5.9-5-14.2-9.5-24.8-13.5c-11-4.1-20.1-8.1-27.3-12.1
		c-7.3-4-13.5-9.6-18.7-16.7c-5.2-7.2-7.8-16.1-7.8-26.9c0-15.8,5.4-28.5,16.1-38.1c10.7-9.6,24.8-14.8,42.4-15.5
		c12.7,0,23.9,1.5,33.6,4.4c9.6,2.9,18.6,7,26.9,12.3L925.8,746.9z M925.8,746.9"/>
</g>
</svg>
